# xmcd
#
# Track frame offsets: 
#        150
#        21572
#        41480
#        64393
#        81993
#        99217
#        118004
#        137100
#        153095
#        169247
#        184987
#
# Disc length: 2705 seconds
#
# Revision: 0
# Processed by: cddbd v1.5.2PL0 Copyright (c) Steve Scherf et al.
# Submitted via: ExactAudioCopy v1.3
#
DISCID=950a8f0b
DTITLE=Big Merino - Sweet Little Angel
DYEAR=2019
DGENRE=Blues
TTITLE0=Sweet Little Angel
TTITLE1=I Lay Me Down
TTITLE2=I Watched the Light
TTITLE3=Mama's Gonna Fall
TTITLE4=Satellite
TTITLE5=Ohio
TTITLE6=This Song
TTITLE7=Hard Lesson To Learn
TTITLE8=Living in the Past
TTITLE9=A Day Without You
TTITLE10=Hummingbird
EXTD=
EXTT0=
EXTT1=
EXTT2=
EXTT3=
EXTT4=
EXTT5=
EXTT6=
EXTT7=
EXTT8=
EXTT9=
EXTT10=
PLAYORDER=
